<?xml version="1.0" standalone="no"?>
<!DOCTYPE svg PUBLIC "-//W3C//DTD SVG 20010904//EN"
 "http://www.w3.org/TR/2001/REC-SVG-20010904/DTD/svg10.dtd">
<svg version="1.0" xmlns="http://www.w3.org/2000/svg"
 width="700.000000pt" height="700.000000pt" viewBox="0 0 700.000000 700.000000"
 preserveAspectRatio="xMidYMid meet">
<metadata>
Created by potrace 1.14, written by Peter Selinger 2001-2017
</metadata>
<g transform="translate(0.000000,700.000000) scale(0.100000,-0.100000)"
fill="#000000" stroke="none">
<path d="M300 6996 c0 -3 166 -171 369 -374 l370 -370 193 196 c106 107 231
234 277 281 46 47 124 128 174 179 l92 92 -738 0 c-405 0 -737 -2 -737 -4z"/>
<path d="M1890 6528 c-256 -259 -487 -492 -513 -518 l-49 -47 266 -266 265
-265 345 346 c190 191 474 478 631 637 157 160 352 356 433 438 l147 147 -531
0 -530 0 -464 -472z"/>
<path d="M3893 6898 l-102 -103 140 -145 c78 -80 197 -202 265 -271 l125 -127
35 37 c20 20 155 158 301 306 146 149 295 300 332 338 l65 67 -529 0 -530 0
-102 -102z"/>
<path d="M5224 6583 c-227 -230 -455 -461 -508 -514 -53 -54 -96 -101 -96
-107 0 -5 117 -127 261 -270 l260 -261 387 387 c213 213 566 566 785 785 l397
397 -537 0 -538 0 -411 -417z"/>
<path d="M0 6173 l0 -538 292 -288 c161 -158 395 -389 519 -513 l227 -225 266
266 266 266 -785 785 -785 785 0 -538z"/>
<path d="M6618 6330 l-366 -369 136 -135 c76 -74 198 -194 272 -266 74 -73
181 -178 238 -233 l102 -102 0 738 c0 405 -3 737 -7 736 -5 0 -173 -166 -375
-369z"/>
<path d="M3366 6368 c-70 -73 -188 -194 -262 -269 l-135 -136 671 -672 c370
-369 676 -671 681 -671 5 0 126 117 269 260 l261 260 -47 48 c-472 479 -1300
1312 -1304 1312 -3 0 -63 -60 -134 -132z"/>
<path d="M2412 5405 l-263 -264 674 -676 675 -675 266 265 265 265 -675 675
c-371 371 -676 675 -677 675 -1 -1 -120 -120 -265 -265z"/>
<path d="M5693 5405 l-261 -263 361 -360 c199 -198 551 -547 782 -776 l420
-415 3 527 3 527 -348 343 c-191 188 -425 419 -519 512 -93 94 -172 170 -175
169 -2 0 -122 -119 -266 -264z"/>
<path d="M0 4524 l0 -529 103 -102 102 -102 130 126 c271 262 405 396 405 403
0 8 -430 435 -699 695 l-41 39 0 -530z"/>
<path d="M1181 4174 l-674 -674 266 -265 265 -265 675 675 675 676 -252 252
c-139 139 -259 257 -267 264 -11 9 -138 -113 -688 -663z"/>
<path d="M4465 4176 l-676 -676 265 -265 265 -265 676 676 676 676 -133 132
c-73 72 -192 191 -265 265 l-132 133 -676 -676z"/>
<path d="M2001 3354 l-673 -674 265 -265 265 -266 675 676 676 675 -253 252
c-139 139 -259 258 -267 264 -11 10 -139 -113 -688 -662z"/>
<path d="M5284 3355 l-675 -675 137 -138 c76 -75 195 -195 266 -265 l128 -128
675 675 675 674 -265 266 -266 266 -675 -675z"/>
<path d="M0 2884 l0 -530 507 -499 c278 -275 512 -506 519 -513 11 -10 61 35
278 252 l265 264 -357 356 c-196 195 -487 484 -647 641 -159 157 -352 348
-427 423 l-138 137 0 -531z"/>
<path d="M3232 2944 l-264 -265 676 -675 675 -676 266 265 265 265 -653 654
c-360 359 -665 663 -678 675 l-24 21 -263 -264z"/>
<path d="M6640 3059 c-268 -260 -380 -372 -380 -379 0 -8 166 -173 530 -529
l205 -200 3 527 2 527 -102 102 -103 102 -155 -150z"/>
<path d="M5697 2125 l-265 -265 781 -782 782 -782 3 535 2 534 -305 300 c-167
165 -401 396 -519 512 l-214 213 -265 -265z"/>
<path d="M2407 2118 l-258 -260 325 -326 c178 -180 482 -487 675 -682 l351
-355 146 150 c80 83 199 205 266 271 l120 121 -672 672 c-369 369 -677 671
-683 670 -7 0 -128 -118 -270 -261z"/>
<path d="M0 1037 c0 -405 2 -737 5 -737 9 0 735 729 735 738 0 8 -149 156
-677 675 l-63 61 0 -737z"/>
<path d="M1072 783 l-782 -783 537 0 538 0 253 257 c139 142 368 373 508 514
140 141 254 261 254 267 0 9 -474 490 -511 518 -11 9 -168 -143 -797 -773z"/>
<path d="M4817 1242 c-180 -180 -529 -532 -776 -782 l-450 -455 527 -3 527 -3
318 323 c175 178 407 412 514 520 l196 198 -134 133 c-74 73 -193 192 -265
264 l-131 131 -326 -326z"/>
<path d="M2486 551 c-107 -108 -271 -275 -364 -371 l-171 -175 527 -3 527 -2
102 102 102 103 -135 140 c-75 77 -194 199 -265 271 l-129 131 -194 -196z"/>
<path d="M5938 731 c-1 -5 -160 -169 -353 -366 -192 -196 -352 -358 -354 -361
-2 -2 330 -4 738 -4 l742 0 -370 370 c-203 204 -376 370 -384 370 -9 0 -17 -4
-19 -9z"/>
</g>
</svg>
